<svg xmlns="http://www.w3.org/2000/svg" viewBox="0 0 96 96" fill="none">
  <!-- Shield shape -->
  <path d="M48 4L12 20v28c0 22.1 15.3 42.7 36 48 20.7-5.3 36-25.9 36-48V20L48 4z" fill="#00C853" opacity="0.15"/>
  <path d="M48 4L12 20v28c0 22.1 15.3 42.7 36 48 20.7-5.3 36-25.9 36-48V20L48 4z" stroke="#00C853" stroke-width="3" fill="none"/>
  <!-- Heartbeat pulse line -->
  <polyline points="20,52 32,52 38,36 44,64 50,44 56,56 62,48 74,48" stroke="#00C853" stroke-width="3.5" stroke-linecap="round" stroke-linejoin="round" fill="none"/>
  <!-- Cross at center-top -->
  <rect x="44" y="16" width="8" height="20" rx="2" fill="#00C853"/>
  <rect x="38" y="22" width="20" height="8" rx="2" fill="#00C853"/>
</svg>
